<svg version="1.2" baseProfile="tiny-ps" xmlns="http://www.w3.org/2000/svg" viewBox="0 0 3710 3710" width="3710" height="3710">
	<title>20945628-ai</title>
	<defs>
		<linearGradient id="grd1" gradientUnits="userSpaceOnUse"  x1="2463.369" y1="4806.141" x2="100.861" y2="1872.054">
			<stop offset="0" stop-color="#dae3fe"  />
			<stop offset="1" stop-color="#e9effd"  />
		</linearGradient>
		<linearGradient id="grd2" gradientUnits="userSpaceOnUse"  x1="456" y1="946.758" x2="3254" y2="946.758">
			<stop offset="0" stop-color="#09005d"  />
			<stop offset="1" stop-color="#1a0f91"  />
		</linearGradient>
		<linearGradient id="grd3" gradientUnits="userSpaceOnUse"  x1="3238.267" y1="822.703" x2="3041.087" y2="2230.633">
			<stop offset="0" stop-color="#4f52ff"  />
			<stop offset="1" stop-color="#4042e2"  />
		</linearGradient>
		<linearGradient id="grd4" gradientUnits="userSpaceOnUse"  x1="2715.595" y1="1490.176" x2="3044.18" y2="1490.176">
			<stop offset="0" stop-color="#dae3fe"  />
			<stop offset="1" stop-color="#e9effd"  />
		</linearGradient>
		<linearGradient id="grd5" gradientUnits="userSpaceOnUse"  x1="2715.595" y1="1569.888" x2="3044.18" y2="1569.888">
			<stop offset="0" stop-color="#dae3fe"  />
			<stop offset="1" stop-color="#e9effd"  />
		</linearGradient>
		<linearGradient id="grd6" gradientUnits="userSpaceOnUse"  x1="2715.595" y1="1646.351" x2="3044.18" y2="1646.351">
			<stop offset="0" stop-color="#dae3fe"  />
			<stop offset="1" stop-color="#e9effd"  />
		</linearGradient>
		<linearGradient id="grd7" gradientUnits="userSpaceOnUse"  x1="2443.842" y1="1436.445" x2="2582.302" y2="1436.445">
			<stop offset="0" stop-color="#dae3fe"  />
			<stop offset="1" stop-color="#e9effd"  />
		</linearGradient>
		<linearGradient id="grd8" gradientUnits="userSpaceOnUse"  x1="2703.806" y1="1237.216" x2="2363.553" y2="1817.947">
			<stop offset="0" stop-color="#e1473d"  />
			<stop offset="1" stop-color="#e9605a"  />
		</linearGradient>
		<linearGradient id="grd9" gradientUnits="userSpaceOnUse"  x1="2344.317" y1="694.407" x2="2147.137" y2="2102.337">
			<stop offset="0" stop-color="#4f52ff"  />
			<stop offset="1" stop-color="#4042e2"  />
		</linearGradient>
		<linearGradient id="grd10" gradientUnits="userSpaceOnUse"  x1="1804.942" y1="1481.148" x2="2133.526" y2="1481.148">
			<stop offset="0" stop-color="#dae3fe"  />
			<stop offset="1" stop-color="#e9effd"  />
		</linearGradient>
		<linearGradient id="grd11" gradientUnits="userSpaceOnUse"  x1="1804.942" y1="1560.86" x2="2133.526" y2="1560.86">
			<stop offset="0" stop-color="#dae3fe"  />
			<stop offset="1" stop-color="#e9effd"  />
		</linearGradient>
		<linearGradient id="grd12" gradientUnits="userSpaceOnUse"  x1="1804.942" y1="1637.323" x2="2133.526" y2="1637.323">
			<stop offset="0" stop-color="#dae3fe"  />
			<stop offset="1" stop-color="#e9effd"  />
		</linearGradient>
		<linearGradient id="grd13" gradientUnits="userSpaceOnUse"  x1="1533.189" y1="1427.417" x2="1671.649" y2="1427.417">
			<stop offset="0" stop-color="#dae3fe"  />
			<stop offset="1" stop-color="#e9effd"  />
		</linearGradient>
		<linearGradient id="grd14" gradientUnits="userSpaceOnUse"  x1="2295.995" y1="1803.816" x2="1975.924" y2="3192.927">
			<stop offset="0" stop-color="#4f52ff"  />
			<stop offset="1" stop-color="#4042e2"  />
		</linearGradient>
		<linearGradient id="grd15" gradientUnits="userSpaceOnUse"  x1="1807.031" y1="1949.856" x2="2135.615" y2="1949.856">
			<stop offset="0" stop-color="#dae3fe"  />
			<stop offset="1" stop-color="#e9effd"  />
		</linearGradient>
		<linearGradient id="grd16" gradientUnits="userSpaceOnUse"  x1="1807.031" y1="2029.569" x2="2135.615" y2="2029.569">
			<stop offset="0" stop-color="#dae3fe"  />
			<stop offset="1" stop-color="#e9effd"  />
		</linearGradient>
		<linearGradient id="grd17" gradientUnits="userSpaceOnUse"  x1="1807.031" y1="2106.032" x2="2135.615" y2="2106.032">
			<stop offset="0" stop-color="#dae3fe"  />
			<stop offset="1" stop-color="#e9effd"  />
		</linearGradient>
		<linearGradient id="grd18" gradientUnits="userSpaceOnUse"  x1="1447.357" y1="566.069" x2="1250.176" y2="1973.999">
			<stop offset="0" stop-color="#4f52ff"  />
			<stop offset="1" stop-color="#4042e2"  />
		</linearGradient>
		<linearGradient id="grd19" gradientUnits="userSpaceOnUse"  x1="893.359" y1="1457.221" x2="1221.943" y2="1457.221">
			<stop offset="0" stop-color="#dae3fe"  />
			<stop offset="1" stop-color="#e9effd"  />
		</linearGradient>
		<linearGradient id="grd20" gradientUnits="userSpaceOnUse"  x1="893.359" y1="1536.933" x2="1221.943" y2="1536.933">
			<stop offset="0" stop-color="#dae3fe"  />
			<stop offset="1" stop-color="#e9effd"  />
		</linearGradient>
		<linearGradient id="grd21" gradientUnits="userSpaceOnUse"  x1="893.359" y1="1613.396" x2="1221.943" y2="1613.396">
			<stop offset="0" stop-color="#dae3fe"  />
			<stop offset="1" stop-color="#e9effd"  />
		</linearGradient>
		<linearGradient id="grd22" gradientUnits="userSpaceOnUse"  x1="621.605" y1="1403.49" x2="760.065" y2="1403.49">
			<stop offset="0" stop-color="#dae3fe"  />
			<stop offset="1" stop-color="#e9effd"  />
		</linearGradient>
		<linearGradient id="grd23" gradientUnits="userSpaceOnUse"  x1="3190.103" y1="1970.986" x2="2993.141" y2="2614.628">
			<stop offset="0" stop-color="#4f52ff"  />
			<stop offset="1" stop-color="#4042e2"  />
		</linearGradient>
		<linearGradient id="grd24" gradientUnits="userSpaceOnUse"  x1="2715.595" y1="1962.256" x2="3044.18" y2="1962.256">
			<stop offset="0" stop-color="#dae3fe"  />
			<stop offset="1" stop-color="#e9effd"  />
		</linearGradient>
		<linearGradient id="grd25" gradientUnits="userSpaceOnUse"  x1="2715.595" y1="2041.968" x2="3044.18" y2="2041.968">
			<stop offset="0" stop-color="#dae3fe"  />
			<stop offset="1" stop-color="#e9effd"  />
		</linearGradient>
		<linearGradient id="grd26" gradientUnits="userSpaceOnUse"  x1="2715.595" y1="2118.431" x2="3044.18" y2="2118.431">
			<stop offset="0" stop-color="#dae3fe"  />
			<stop offset="1" stop-color="#e9effd"  />
		</linearGradient>
		<linearGradient id="grd27" gradientUnits="userSpaceOnUse"  x1="2443.842" y1="1908.525" x2="2582.302" y2="1908.525">
			<stop offset="0" stop-color="#dae3fe"  />
			<stop offset="1" stop-color="#e9effd"  />
		</linearGradient>
		<linearGradient id="grd28" gradientUnits="userSpaceOnUse"  x1="2984.669" y1="1784.523" x2="3090.548" y2="2636.162">
			<stop offset="0" stop-color="#e1473d"  />
			<stop offset="1" stop-color="#e9605a"  />
		</linearGradient>
		<linearGradient id="grd29" gradientUnits="userSpaceOnUse"  x1="2784.029" y1="2039.147" x2="2657.113" y2="2045.858">
			<stop offset="0" stop-color="#febbba"  />
			<stop offset="1" stop-color="#ff928e"  />
		</linearGradient>
		<linearGradient id="grd30" gradientUnits="userSpaceOnUse"  x1="3096.308" y1="3176.776" x2="3014.543" y2="3167.56">
			<stop offset="0" stop-color="#09005d"  />
			<stop offset="1" stop-color="#1a0f91"  />
		</linearGradient>
		<linearGradient id="grd31" gradientUnits="userSpaceOnUse"  x1="3092.826" y1="3147.886" x2="3059.107" y2="3144.086">
			<stop offset="0" stop-color="#febbba"  />
			<stop offset="1" stop-color="#ff928e"  />
		</linearGradient>
		<linearGradient id="grd32" gradientUnits="userSpaceOnUse"  x1="2918.135" y1="3157.723" x2="2788.007" y2="3154.469">
			<stop offset="0" stop-color="#09005d"  />
			<stop offset="1" stop-color="#1a0f91"  />
		</linearGradient>
		<linearGradient id="grd33" gradientUnits="userSpaceOnUse"  x1="2915.856" y1="3107.706" x2="2882.282" y2="3106.285">
			<stop offset="0" stop-color="#febbba"  />
			<stop offset="1" stop-color="#ff928e"  />
		</linearGradient>
		<linearGradient id="grd34" gradientUnits="userSpaceOnUse"  x1="3380.283" y1="2412.914" x2="3074.69" y2="3217.642">
			<stop offset="0" stop-color="#4f52ff"  />
			<stop offset="1" stop-color="#4042e2"  />
		</linearGradient>
		<linearGradient id="grd35" gradientUnits="userSpaceOnUse"  x1="3627.936" y1="1948.168" x2="3393.37" y2="2253.104">
			<stop offset="0" stop-color="#ff928e"  />
			<stop offset="1" stop-color="#fe7062"  />
		</linearGradient>
		<linearGradient id="grd36" gradientUnits="userSpaceOnUse"  x1="2467.971" y1="2141.504" x2="2702.679" y2="2511.895">
			<stop offset="0" stop-color="#febbba"  />
			<stop offset="1" stop-color="#ff928e"  />
		</linearGradient>
		<linearGradient id="grd37" gradientUnits="userSpaceOnUse"  x1="2415.539" y1="2188.636" x2="2633.694" y2="2532.904">
			<stop offset="0" stop-color="#febbba"  />
			<stop offset="1" stop-color="#ff928e"  />
		</linearGradient>
		<linearGradient id="grd38" gradientUnits="userSpaceOnUse"  x1="2803.354" y1="1966.061" x2="3003.757" y2="2458.943">
			<stop offset="0" stop-color="#febbba"  />
			<stop offset="1" stop-color="#ff928e"  />
		</linearGradient>
		<linearGradient id="grd39" gradientUnits="userSpaceOnUse"  x1="2827.88" y1="2116.476" x2="2947.186" y2="2239.632">
			<stop offset="0" stop-color="#febbba"  />
			<stop offset="1" stop-color="#ff928e"  />
		</linearGradient>
		<linearGradient id="grd40" gradientUnits="userSpaceOnUse"  x1="2921.452" y1="1908.719" x2="2772.888" y2="2050.567">
			<stop offset="0" stop-color="#09005d"  />
			<stop offset="1" stop-color="#1a0f91"  />
		</linearGradient>
		<linearGradient id="grd41" gradientUnits="userSpaceOnUse"  x1="2900.847" y1="2070.355" x2="2997.667" y2="2170.3">
			<stop offset="0" stop-color="#febbba"  />
			<stop offset="1" stop-color="#ff928e"  />
		</linearGradient>
		<linearGradient id="grd42" gradientUnits="userSpaceOnUse"  x1="2777.484" y1="1914.956" x2="2394.927" y2="2911.621">
			<stop offset="0" stop-color="#e1473d"  />
			<stop offset="1" stop-color="#e9605a"  />
		</linearGradient>
		<linearGradient id="grd43" gradientUnits="userSpaceOnUse"  x1="1913.813" y1="2961.866" x2="2391.837" y2="2165.947">
			<stop offset="0" stop-color="#4f52ff"  />
			<stop offset="1" stop-color="#4042e2"  />
		</linearGradient>
		<linearGradient id="grd44" gradientUnits="userSpaceOnUse"  x1="2355.923" y1="1032.026" x2="2286.228" y2="1303.838">
			<stop offset="0" stop-color="#ff928e"  />
			<stop offset="1" stop-color="#fe7062"  />
		</linearGradient>
		<linearGradient id="grd45" gradientUnits="userSpaceOnUse"  x1="2057.051" y1="1475.18" x2="2077.336" y2="2996.585">
			<stop offset="0" stop-color="#ff928e"  />
			<stop offset="1" stop-color="#fe7062"  />
		</linearGradient>
		<linearGradient id="grd46" gradientUnits="userSpaceOnUse"  x1="1230.981" y1="1881.378" x2="1015.738" y2="2367.384">
			<stop offset="0" stop-color="#febbba"  />
			<stop offset="1" stop-color="#ff928e"  />
		</linearGradient>
		<linearGradient id="grd47" gradientUnits="userSpaceOnUse"  x1="970.125" y1="1877.217" x2="829.266" y2="2120.014">
			<stop offset="0" stop-color="#09005d"  />
			<stop offset="1" stop-color="#1a0f91"  />
		</linearGradient>
		<linearGradient id="grd48" gradientUnits="userSpaceOnUse"  x1="1225.075" y1="1869.358" x2="1056.056" y2="2250.993">
			<stop offset="0" stop-color="#febbba"  />
			<stop offset="1" stop-color="#ff928e"  />
		</linearGradient>
		<linearGradient id="grd49" gradientUnits="userSpaceOnUse"  x1="779.88" y1="3153.888" x2="710.688" y2="3153.888">
			<stop offset="0" stop-color="#09005d"  />
			<stop offset="1" stop-color="#1a0f91"  />
		</linearGradient>
		<linearGradient id="grd50" gradientUnits="userSpaceOnUse"  x1="1133.142" y1="3461.693" x2="1030.782" y2="2265.368">
			<stop offset="0" stop-color="#febbba"  />
			<stop offset="1" stop-color="#ff928e"  />
		</linearGradient>
		<linearGradient id="grd51" gradientUnits="userSpaceOnUse"  x1="1033.423" y1="3126.933" x2="922.872" y2="3126.933">
			<stop offset="0" stop-color="#09005d"  />
			<stop offset="1" stop-color="#1a0f91"  />
		</linearGradient>
		<linearGradient id="grd52" gradientUnits="userSpaceOnUse"  x1="1001.11" y1="3461.983" x2="902.777" y2="2312.713">
			<stop offset="0" stop-color="#febbba"  />
			<stop offset="1" stop-color="#ff928e"  />
		</linearGradient>
		<linearGradient id="grd53" gradientUnits="userSpaceOnUse"  x1="1956.75" y1="1610.173" x2="1752.335" y2="1802.199">
			<stop offset="0" stop-color="#ff928e"  />
			<stop offset="1" stop-color="#fe7062"  />
		</linearGradient>
		<linearGradient id="grd54" gradientUnits="userSpaceOnUse"  x1="997.542" y1="1553.014" x2="1075.706" y2="2063.691">
			<stop offset="0" stop-color="#4f52ff"  />
			<stop offset="1" stop-color="#4042e2"  />
		</linearGradient>
		<linearGradient id="grd55" gradientUnits="userSpaceOnUse"  x1="1137.908" y1="2274.824" x2="1119.308" y2="2138.752">
			<stop offset="0" stop-color="#febbba"  />
			<stop offset="1" stop-color="#ff928e"  />
		</linearGradient>
		<linearGradient id="grd56" gradientUnits="userSpaceOnUse"  x1="1181.222" y1="2074.849" x2="1031.301" y2="1808.041">
			<stop offset="0" stop-color="#febbba"  />
			<stop offset="1" stop-color="#ff928e"  />
		</linearGradient>
		<linearGradient id="grd57" gradientUnits="userSpaceOnUse"  x1="1026.656" y1="1910.011" x2="893.117" y2="2140.19">
			<stop offset="0" stop-color="#09005d"  />
			<stop offset="1" stop-color="#1a0f91"  />
		</linearGradient>
		<linearGradient id="grd58" gradientUnits="userSpaceOnUse"  x1="1111.489" y1="2101.004" x2="975.748" y2="1859.43">
			<stop offset="0" stop-color="#febbba"  />
			<stop offset="1" stop-color="#ff928e"  />
		</linearGradient>
		<linearGradient id="grd59" gradientUnits="userSpaceOnUse"  x1="938.54" y1="2239.931" x2="1398.707" y2="1924.862">
			<stop offset="0" stop-color="#febbba"  />
			<stop offset="1" stop-color="#ff928e"  />
		</linearGradient>
		<linearGradient id="grd60" gradientUnits="userSpaceOnUse"  x1="964.981" y1="2288.137" x2="1467.873" y2="1943.815">
			<stop offset="0" stop-color="#febbba"  />
			<stop offset="1" stop-color="#ff928e"  />
		</linearGradient>
	</defs>
	<style>
		tspan { white-space:pre }
		.shp0 { fill: url(#grd1) } 
		.shp1 { fill: #91b3fa } 
		.shp2 { fill: #bdd0fb } 
		.shp3 { fill: url(#grd2) } 
		.shp4 { fill: #7d97f4 } 
		.shp5 { opacity: 0.588;fill: #ffffff } 
		.shp6 { fill: url(#grd3) } 
		.shp7 { fill: url(#grd4) } 
		.shp8 { fill: url(#grd5) } 
		.shp9 { fill: url(#grd6) } 
		.shp10 { fill: url(#grd7) } 
		.shp11 { fill: url(#grd8) } 
		.shp12 { fill: url(#grd9) } 
		.shp13 { fill: url(#grd10) } 
		.shp14 { fill: url(#grd11) } 
		.shp15 { fill: url(#grd12) } 
		.shp16 { fill: url(#grd13) } 
		.shp17 { fill: url(#grd14) } 
		.shp18 { fill: url(#grd15) } 
		.shp19 { fill: url(#grd16) } 
		.shp20 { fill: url(#grd17) } 
		.shp21 { fill: #ffffff } 
		.shp22 { fill: url(#grd18) } 
		.shp23 { fill: url(#grd19) } 
		.shp24 { fill: url(#grd20) } 
		.shp25 { fill: url(#grd21) } 
		.shp26 { fill: url(#grd22) } 
		.shp27 { fill: url(#grd23) } 
		.shp28 { fill: url(#grd24) } 
		.shp29 { fill: url(#grd25) } 
		.shp30 { fill: url(#grd26) } 
		.shp31 { fill: url(#grd27) } 
		.shp32 { fill: url(#grd28) } 
		.shp33 { fill: url(#grd29) } 
		.shp34 { fill: url(#grd30) } 
		.shp35 { fill: url(#grd31) } 
		.shp36 { fill: url(#grd32) } 
		.shp37 { fill: url(#grd33) } 
		.shp38 { fill: url(#grd34) } 
		.shp39 { fill: url(#grd35) } 
		.shp40 { fill: url(#grd36) } 
		.shp41 { fill: url(#grd37) } 
		.shp42 { fill: url(#grd38) } 
		.shp43 { fill: url(#grd39) } 
		.shp44 { fill: url(#grd40) } 
		.shp45 { fill: url(#grd41) } 
		.shp46 { fill: url(#grd42) } 
		.shp47 { opacity: 0.529;fill: #ffffff } 
		.shp48 { fill: url(#grd43) } 
		.shp49 { fill: url(#grd44) } 
		.shp50 { fill: url(#grd45) } 
		.shp51 { fill: url(#grd46) } 
		.shp52 { fill: url(#grd47) } 
		.shp53 { fill: url(#grd48) } 
		.shp54 { fill: url(#grd49) } 
		.shp55 { fill: url(#grd50) } 
		.shp56 { fill: url(#grd51) } 
		.shp57 { fill: url(#grd52) } 
		.shp58 { fill: url(#grd53) } 
		.shp59 { fill: url(#grd54) } 
		.shp60 { fill: url(#grd55) } 
		.shp61 { fill: url(#grd56) } 
		.shp62 { fill: url(#grd57) } 
		.shp63 { fill: url(#grd58) } 
		.shp64 { fill: url(#grd59) } 
		.shp65 { fill: url(#grd60) } 
	</style>
	<g id="Illustration">
		<g id="&lt;Group&gt;">
			<path id="&lt;Path&gt;" class="shp0" d="M2925.24 2858.46C2868.4 2918.3 2814.62 2956.88 2772.13 2987.37C2272.68 3345.73 1681.69 3241.27 1556.09 3215.76C1370.61 3178.09 1012.09 3105.27 752.89 2800.46C360.74 2339.3 421.81 1612.75 725.99 1133.15C781.62 1045.42 1075.53 558.51 1672.88 480.43C2034.39 433.17 2455.8 528.48 2760.97 784.15C3401.55 1320.83 3355.95 2405.02 2925.24 2858.46Z" />
			<g id="&lt;Group&gt;">
				<g id="&lt;Group&gt;">
					<g id="&lt;Group&gt;" style="opacity: 0.302">
						<path id="&lt;Compound Path&gt;" class="shp1" d="M1347.7 775.26C1342.28 776.6 1336.79 773.28 1335.46 767.85C1332.86 757.31 1329.77 746.73 1326.27 736.39C1324.49 731.16 1327.24 725.49 1332.42 723.62C1332.48 723.6 1332.54 723.58 1332.6 723.56C1337.89 721.76 1343.64 724.6 1345.43 729.89C1349.12 740.78 1352.38 751.92 1355.11 763.02C1356.36 768.09 1353.54 773.22 1348.72 774.95C1348.39 775.07 1348.05 775.18 1347.7 775.26ZM1305.76 687.24C1300.88 677.49 1295.54 667.84 1289.88 658.58C1286.97 653.81 1288.47 647.58 1293.24 644.67C1298.03 641.76 1304.23 643.26 1307.15 648.03C1313.11 657.78 1318.73 667.93 1323.86 678.19C1326.36 683.19 1324.33 689.27 1319.33 691.77C1318.97 691.95 1318.6 692.11 1318.23 692.24C1313.47 693.96 1308.08 691.88 1305.76 687.24ZM1259.04 615.21C1252.13 606.8 1244.77 598.6 1237.16 590.81C1233.26 586.82 1233.33 580.41 1237.33 576.5C1241.32 572.61 1247.73 572.67 1251.63 576.67C1259.65 584.86 1267.4 593.51 1274.67 602.36C1278.22 606.67 1277.59 613.05 1273.28 616.6C1272.36 617.36 1271.34 617.92 1270.28 618.3C1266.37 619.71 1261.83 618.6 1259.04 615.21ZM1197.37 555.43C1188.75 548.77 1179.74 542.41 1170.59 536.53C1165.89 533.5 1164.53 527.24 1167.55 522.54C1170.58 517.85 1176.84 516.49 1181.54 519.51C1191.17 525.71 1200.66 532.4 1209.74 539.4C1214.16 542.82 1214.98 549.17 1211.56 553.6C1210.34 555.18 1208.75 556.3 1206.99 556.93C1203.85 558.06 1200.21 557.62 1197.37 555.43ZM1123.93 510.88C1114.07 506.31 1103.87 502.1 1093.62 498.38C1088.37 496.46 1085.66 490.66 1087.57 485.41C1089.48 480.15 1095.29 477.45 1100.54 479.36C1111.32 483.28 1122.05 487.71 1132.43 492.51C1137.5 494.86 1139.71 500.87 1137.36 505.94C1136.18 508.5 1134.07 510.33 1131.61 511.21C1129.19 512.08 1126.45 512.04 1123.93 510.88ZM1042.46 483.68C1031.82 481.41 1020.95 479.57 1010.15 478.2C1004.6 477.5 1000.67 472.44 1001.37 466.9C1002.07 461.35 1007.13 457.43 1012.68 458.13C1024.04 459.56 1035.49 461.5 1046.69 463.89C1052.15 465.06 1055.64 470.44 1054.47 475.9C1053.71 479.45 1051.18 482.17 1047.99 483.31C1046.28 483.93 1044.38 484.1 1042.46 483.68ZM680.31 583.87C676.41 579.87 676.5 573.46 680.5 569.56C688.7 561.58 697.36 553.84 706.24 546.57C710.57 543.03 716.94 543.66 720.48 547.99C724.02 552.31 723.39 558.68 719.06 562.22C710.63 569.13 702.41 576.47 694.62 584.06C693.55 585.1 692.32 585.86 691 586.33C687.38 587.64 683.17 586.81 680.31 583.87ZM957.04 475.23C946.17 475.38 935.16 476.01 924.34 477.09C918.78 477.65 913.82 473.59 913.26 468.03C912.71 462.47 916.77 457.54 922.33 456.96C933.72 455.82 945.31 455.16 956.76 455C962.35 454.92 966.94 459.39 967.02 464.98C967.08 469.41 964.28 473.22 960.33 474.64C959.3 475.01 958.2 475.22 957.04 475.23ZM748.6 528.07C745.7 523.3 747.21 517.07 751.99 514.17C761.77 508.22 771.94 502.61 782.2 497.5C787.2 494.99 793.28 497.05 795.77 502.05C798.26 507.06 796.22 513.13 791.22 515.62C781.46 520.48 771.8 525.8 762.5 531.46C761.91 531.82 761.3 532.11 760.67 532.33C756.23 533.93 751.14 532.25 748.6 528.07ZM871.89 486.08C861.33 488.66 850.74 491.73 840.42 495.21C835.12 496.99 829.38 494.15 827.6 488.85C825.84 483.62 828.59 477.96 833.75 476.1C833.82 476.08 833.89 476.05 833.96 476.03C844.83 472.37 855.97 469.14 867.09 466.42C872.52 465.1 877.99 468.42 879.32 473.85C880.56 478.92 877.74 484.04 872.93 485.77C872.59 485.89 872.25 485.99 871.89 486.08Z" />
						<path id="&lt;Path&gt;" class="shp1" d="M644.8 640.32C646.67 639.64 648.37 638.41 649.61 636.66C652.63 632.4 655.79 628.14 659 623.99C662.41 619.57 661.6 613.21 657.18 609.79C652.76 606.38 646.4 607.18 642.99 611.61C639.61 615.98 636.29 620.46 633.11 624.94C629.87 629.5 630.95 635.82 635.5 639.05C638.31 641.04 641.79 641.4 644.8 640.32Z" />
					</g>
					<g id="&lt;Group&gt;" style="opacity: 0.302">
						<path id="&lt;Path&gt;" class="shp1" d="M578.64 941.63C583.23 939.97 586.08 935.19 585.14 930.23C584.17 925.11 583.29 919.88 582.53 914.68C581.72 909.15 576.58 905.33 571.05 906.14C565.5 906.96 561.69 912.1 562.5 917.62C563.31 923.09 564.23 928.6 565.25 934C566.29 939.49 571.59 943.1 577.08 942.06C577.62 941.96 578.14 941.81 578.64 941.63Z" />
						<path id="&lt;Compound Path&gt;" class="shp1" d="M1080.23 1245.86C1074.88 1247.5 1069.23 1244.49 1067.59 1239.15C1065.96 1233.8 1068.96 1228.16 1074.31 1226.51C1084.48 1223.4 1094.68 1219.81 1104.74 1215.79C1109.9 1213.72 1115.82 1216.26 1117.89 1221.45C1119.96 1226.64 1117.43 1232.52 1112.24 1234.6C1107.88 1236.33 1103.51 1237.99 1099.13 1239.57C1092.88 1241.82 1086.52 1243.94 1080.23 1245.86ZM1148.17 1206.92C1145.42 1202.06 1147.13 1195.89 1151.99 1193.13C1161.32 1187.85 1170.54 1182.11 1179.37 1176.08C1183.97 1172.92 1190.28 1174.11 1193.43 1178.73C1196.58 1183.34 1195.4 1189.64 1190.78 1192.79C1181.48 1199.14 1171.78 1205.18 1161.96 1210.74C1161.45 1211.03 1160.92 1211.27 1160.39 1211.46C1155.84 1213.1 1150.63 1211.28 1148.17 1206.92ZM1026.52 1258.34C1015.41 1260.13 1004.06 1261.47 992.8 1262.32C987.23 1262.74 982.37 1258.56 981.95 1252.99C981.53 1247.42 985.71 1242.57 991.28 1242.14C1001.98 1241.34 1012.75 1240.06 1023.3 1238.36C1028.82 1237.48 1034.01 1241.23 1034.9 1246.74C1035.69 1251.62 1032.84 1256.25 1028.35 1257.87C1027.77 1258.08 1027.15 1258.24 1026.52 1258.34ZM1219.8 1157.94C1216.05 1153.8 1216.36 1147.4 1220.5 1143.64C1228.44 1136.45 1236.16 1128.83 1243.45 1120.99C1247.26 1116.9 1253.66 1116.67 1257.75 1120.48C1261.84 1124.29 1262.07 1130.69 1258.26 1134.78C1250.58 1143.03 1242.45 1151.06 1234.09 1158.63C1233.08 1159.55 1231.94 1160.23 1230.73 1160.66C1226.99 1162.01 1222.64 1161.07 1219.8 1157.94ZM937.7 1262.67C926.48 1261.97 915.12 1260.78 903.95 1259.14C898.42 1258.32 894.6 1253.18 895.41 1247.65C896.23 1242.12 901.37 1238.3 906.9 1239.12C917.51 1240.68 928.3 1241.81 938.96 1242.47C944.54 1242.82 948.78 1247.62 948.43 1253.2C948.17 1257.36 945.44 1260.77 941.76 1262.09C940.5 1262.55 939.13 1262.76 937.7 1262.67ZM850.09 1247.41C839.26 1244.27 828.44 1240.63 817.92 1236.6C812.7 1234.6 810.09 1228.75 812.09 1223.53C814.1 1218.31 819.95 1215.7 825.16 1217.71C835.16 1221.53 845.44 1224.99 855.73 1227.98C861.1 1229.54 864.19 1235.15 862.63 1240.52C861.69 1243.75 859.28 1246.16 856.34 1247.22C854.4 1247.92 852.23 1248.03 850.09 1247.41ZM767.89 1213.43C757.99 1208 748.22 1202.09 738.83 1195.87C734.17 1192.78 732.9 1186.5 735.99 1181.84C739.08 1177.18 745.36 1175.91 750.02 1179C758.93 1184.91 768.22 1190.52 777.62 1195.68C782.52 1198.37 784.31 1204.52 781.63 1209.42C780.39 1211.67 778.43 1213.27 776.19 1214.07C773.55 1215.02 770.54 1214.88 767.89 1213.43ZM695.05 1162.31C686.59 1154.85 678.34 1146.94 670.54 1138.8C666.68 1134.77 666.82 1128.36 670.85 1124.5C674.88 1120.64 681.29 1120.77 685.16 1124.81C692.56 1132.54 700.39 1140.05 708.43 1147.13C712.63 1150.83 713.03 1157.22 709.34 1161.41C708.17 1162.74 706.73 1163.68 705.18 1164.24C701.82 1165.45 697.92 1164.84 695.05 1162.31ZM635.2 1096.41C628.6 1087.29 622.3 1077.77 616.49 1068.1C613.6 1063.31 615.15 1057.09 619.94 1054.21C624.71 1051.34 630.94 1052.87 633.82 1057.66C639.35 1066.85 645.33 1075.89 651.6 1084.56C654.87 1089.08 653.86 1095.41 649.33 1098.68C648.54 1099.25 647.7 1099.7 646.83 1100.01C642.69 1101.5 637.9 1100.15 635.2 1096.41ZM591.32 1019.06C588.04 1011.44 584.95 1003.63 582.14 995.84C581.13 993.01 580.14 990.19 579.19 987.36C577.42 982.07 580.17 976.25 585.56 974.55C590.86 972.77 596.6 975.62 598.38 980.92C599.28 983.61 600.22 986.3 601.18 988.98C603.85 996.38 606.78 1003.81 609.9 1011.05C612.12 1016.18 609.75 1022.14 604.62 1024.35C604.42 1024.43 604.23 1024.51 604.03 1024.58C599.04 1026.38 593.45 1024 591.32 1019.06Z" />
						<path id="&lt;Path&gt;" class="shp1" d="M1288.3 1095.42C1290.19 1094.74 1291.89 1093.49 1293.14 1091.72C1296.29 1087.24 1299.4 1082.6 1302.39 1077.94C1305.41 1073.24 1304.05 1066.98 1299.35 1063.96C1294.65 1060.94 1288.39 1062.3 1285.37 1067C1282.53 1071.43 1279.57 1075.83 1276.58 1080.09C1273.37 1084.66 1274.47 1090.97 1279.04 1094.18C1281.85 1096.15 1285.3 1096.5 1288.3 1095.42Z" />
					</g>
					<g id="&lt;Group&gt;">
						<path id="&lt;Compound Path&gt;" class="shp1" d="M1258.6 924.51C1259.27 922.6 1258.66 920.49 1257.08 919.23L1211.99 883.46C1214.9 856.74 1213.57 829.36 1207.62 802.34L1248.57 761.94C1250 760.52 1250.38 758.35 1249.51 756.53L1219.68 694.26C1218.81 692.44 1216.88 691.38 1214.87 691.61L1157.73 698.19C1140.4 676.63 1119.9 658.43 1097.25 643.96L1097.62 586.4C1097.64 584.38 1096.37 582.58 1094.47 581.91L1029.34 558.97C1027.44 558.3 1025.32 558.92 1024.07 560.5L988.3 605.59C961.57 602.68 934.19 604 907.18 609.95L866.77 569.01C865.35 567.57 863.18 567.2 861.36 568.07L799.1 597.9C797.28 598.77 796.21 600.7 796.44 602.7L803.03 659.85C781.46 677.18 763.27 697.68 748.8 720.33L691.24 719.95C689.22 719.94 687.42 721.21 686.75 723.11L663.81 788.23C663.14 790.13 663.75 792.25 665.33 793.51L710.43 829.28C707.51 856 708.84 883.38 714.79 910.4L673.85 950.8C672.41 952.22 672.03 954.39 672.9 956.21L702.74 1018.48C703.61 1020.3 705.54 1021.36 707.54 1021.13L764.69 1014.55C782.01 1036.11 802.52 1054.31 825.17 1068.78L824.79 1126.34C824.77 1128.36 826.04 1130.16 827.95 1130.83L893.07 1153.76C894.97 1154.43 897.09 1153.82 898.34 1152.24L934.12 1107.15C960.84 1110.06 988.22 1108.74 1015.23 1102.79L1055.64 1143.73C1057.06 1145.16 1059.23 1145.54 1061.05 1144.67L1123.31 1114.84C1125.13 1113.97 1126.2 1112.04 1125.97 1110.03L1119.39 1052.89C1140.95 1035.56 1159.14 1015.06 1173.62 992.41L1231.17 992.79C1233.19 992.8 1235 991.53 1235.67 989.63L1258.6 924.51Z" />
						<g id="&lt;Group&gt;">
							<path id="&lt;Compound Path&gt;" fill-rule="evenodd" class="shp2" d="M974.96 924.39C937.45 931.97 900.77 907.63 893.18 870.12C889.51 851.95 893.13 833.44 903.38 817.99C913.63 802.55 929.28 792.02 947.45 788.35C984.96 780.77 1021.64 805.11 1029.23 842.62C1036.13 876.74 1016.6 910.18 984.78 921.65C981.62 922.79 978.34 923.71 974.96 924.39ZM916.87 826.95C909.01 838.79 906.24 852.98 909.05 866.92C914.87 895.67 942.99 914.34 971.75 908.52C1000.52 902.72 1019.17 874.58 1013.36 845.82C1007.55 817.07 979.42 798.4 950.66 804.21C948.05 804.74 945.52 805.45 943.06 806.34C932.39 810.19 923.26 817.32 916.87 826.95Z" />
						</g>
						<path id="&lt;Path&gt;" class="shp2" d="M1017.42 1016.43C1022.88 1014.46 1028.28 1012.21 1033.59 1009.66C1035.27 1008.86 1036.93 1008.03 1038.57 1007.18C1046.68 1002.97 1054.45 998.12 1061.75 992.7C1061.85 992.63 1061.95 992.55 1062.05 992.48C1062.33 992.27 1062.61 992.06 1062.89 991.84C1063.44 991.43 1063.98 991.01 1064.52 990.6C1065.94 989.5 1066.43 987.64 1065.85 986.03C1065.71 985.64 1065.51 985.26 1065.24 984.92C1063.87 983.15 1061.33 982.84 1059.56 984.2C1050.47 991.24 1040.56 997.35 1030.1 1002.36C978.16 1027.26 919.43 1022 873.81 993.62C848.43 977.83 827.11 954.89 813.27 926C810.85 920.93 808.69 915.78 806.81 910.57C794.18 875.48 793.99 837.43 806.55 801.77C820.97 760.82 850.48 727.94 889.63 709.18C970.5 670.44 1067.74 704.71 1106.46 785.54C1108.85 790.52 1110.97 795.61 1112.83 800.77C1120.89 823.16 1123.97 847.06 1121.75 870.76C1121.69 871.38 1121.77 871.97 1121.97 872.51C1122.48 873.94 1123.79 875.02 1125.4 875.17C1127.63 875.37 1129.6 873.75 1129.81 871.52C1132.14 846.63 1128.91 821.53 1120.45 798.03C1118.5 792.61 1116.27 787.27 1113.76 782.04C1073.11 697.18 970.97 661.23 886.14 701.87C845.03 721.57 814.06 756.09 798.91 799.08C785.73 836.51 785.93 876.46 799.19 913.3C801.16 918.77 803.43 924.18 805.97 929.5C825.67 970.6 860.19 1001.58 903.18 1016.72C940.62 1029.91 980.57 1029.71 1017.42 1016.43Z" />
					</g>
				</g>
				<g id="&lt;Group&gt;">
					<g id="&lt;Group&gt;" style="opacity: 0.302">
						<path id="&lt;Path&gt;" class="shp1" d="M1763.97 908.77C1766.51 907.85 1768.26 905.35 1768.08 902.51C1767.77 897.22 1767.28 891.86 1766.64 886.59C1766.23 883.16 1763.12 880.72 1759.69 881.13C1756.26 881.53 1753.82 884.66 1754.24 888.09C1754.84 893.11 1755.3 898.22 1755.61 903.27C1755.82 906.71 1758.78 909.34 1762.22 909.13C1762.84 909.1 1763.42 908.97 1763.97 908.77Z" />
						<path id="&lt;Compound Path&gt;" class="shp1" d="M1756.07 861.44C1752.72 862.27 1749.33 860.24 1748.49 856.88C1746.38 848.43 1743.82 839.99 1740.87 831.8C1740.24 830.07 1739.6 828.34 1738.93 826.61C1737.7 823.39 1739.31 819.78 1742.53 818.54C1745.62 817.49 1749.36 818.91 1750.61 822.14C1751.3 823.94 1751.97 825.75 1752.63 827.56C1755.72 836.15 1758.41 845 1760.62 853.87C1761.4 857 1759.66 860.18 1756.68 861.25C1756.48 861.32 1756.28 861.38 1756.07 861.44ZM1725.77 797.74C1720.81 788.41 1715.23 779.31 1709.18 770.69C1707.2 767.86 1707.88 763.97 1710.71 761.98C1713.52 760.01 1717.43 760.68 1719.41 763.51C1725.75 772.54 1731.61 782.09 1736.8 791.87C1738.42 794.91 1737.27 798.7 1734.22 800.32C1733.95 800.46 1733.67 800.58 1733.4 800.68C1730.52 801.72 1727.25 800.51 1725.77 797.74ZM1689.37 745.89C1682.29 738.07 1674.64 730.62 1666.64 723.74C1664.02 721.49 1663.72 717.54 1665.97 714.93C1668.23 712.3 1672.17 712.01 1674.79 714.26C1683.18 721.48 1691.2 729.3 1698.63 737.49C1700.95 740.05 1700.76 744 1698.2 746.32C1697.57 746.88 1696.87 747.3 1696.12 747.57C1693.81 748.4 1691.12 747.82 1689.37 745.89ZM1641.34 704.57C1632.55 698.72 1623.3 693.36 1613.89 688.66C1610.8 687.11 1609.54 683.36 1611.09 680.27C1612.63 677.2 1616.38 675.94 1619.47 677.48C1629.35 682.41 1639.04 688.03 1648.26 694.16C1651.14 696.07 1651.92 699.95 1650.01 702.83C1649.23 703.98 1648.14 704.8 1646.92 705.24C1645.13 705.89 1643.06 705.71 1641.34 704.57ZM1584.68 676.23C1574.73 672.69 1564.47 669.75 1554.18 667.46C1550.82 666.71 1548.69 663.37 1549.44 660C1550.19 656.63 1553.53 654.5 1556.9 655.26C1567.68 657.65 1578.43 660.75 1588.86 664.44C1592.11 665.6 1593.82 669.17 1592.66 672.42C1592.01 674.26 1590.59 675.6 1588.89 676.21C1587.57 676.69 1586.1 676.73 1584.68 676.23ZM1522.86 662.5C1512.36 661.49 1501.7 661.13 1491.17 661.44C1487.73 661.54 1484.85 658.82 1484.75 655.37C1484.65 651.92 1487.36 649.05 1490.82 648.94C1501.85 648.62 1513.04 649 1524.05 650.05C1527.48 650.38 1530 653.43 1529.67 656.87C1529.44 659.35 1527.77 661.36 1525.57 662.16C1524.73 662.46 1523.81 662.59 1522.86 662.5ZM1459.58 664.3C1449.19 665.9 1438.76 668.17 1428.58 671.06C1425.26 672 1421.8 670.07 1420.86 666.75C1419.92 663.43 1421.86 660.03 1425.17 659.03C1435.85 656.01 1446.78 653.62 1457.68 651.95C1461.09 651.43 1464.28 653.77 1464.81 657.18C1465.27 660.18 1463.51 663.01 1460.75 664C1460.38 664.14 1459.99 664.24 1459.58 664.3ZM1361.67 693.38C1359.95 690.39 1360.98 686.57 1363.97 684.85C1372.26 680.09 1380.95 675.7 1389.77 671.81C1391.11 671.21 1392.45 670.64 1393.79 670.07C1396.92 668.64 1400.64 670.22 1401.97 673.41C1403.31 676.6 1401.82 680.26 1398.63 681.6C1397.37 682.12 1396.11 682.67 1394.83 683.24C1386.39 686.96 1378.1 691.14 1370.2 695.68C1369.88 695.87 1369.54 696.03 1369.2 696.15C1366.4 697.16 1363.2 696.05 1361.67 693.38Z" />
					</g>
					<g id="&lt;Group&gt;" style="opacity: 0.302">
						<path id="&lt;Compound Path&gt;" class="shp1" d="M1586.54 1174.01C1576.25 1177.57 1565.65 1180.53 1555.04 1182.82C1551.66 1183.54 1548.34 1181.4 1547.61 1178.02C1546.88 1174.64 1549.06 1171.35 1552.41 1170.6C1562.53 1168.42 1572.64 1165.6 1582.46 1162.2C1585.72 1161.07 1589.28 1162.8 1590.41 1166.06C1591.53 1169.3 1589.83 1172.83 1586.62 1173.99C1586.6 1174 1586.57 1174.01 1586.54 1174.01ZM1608.43 1158.59C1606.92 1155.49 1608.21 1151.75 1611.32 1150.24C1620.65 1145.7 1629.81 1140.54 1638.52 1134.92C1641.41 1133.06 1645.29 1133.88 1647.16 1136.79C1649.04 1139.69 1648.2 1143.55 1645.3 1145.42C1636.16 1151.32 1626.57 1156.72 1616.78 1161.48C1616.58 1161.58 1616.37 1161.67 1616.16 1161.74C1613.2 1162.81 1609.84 1161.49 1608.43 1158.59ZM1522.67 1187.73C1511.81 1188.69 1500.8 1189.01 1489.95 1188.65C1486.5 1188.54 1483.8 1185.65 1483.91 1182.2C1484.02 1178.75 1486.9 1176.06 1490.36 1176.16C1500.71 1176.5 1511.2 1176.2 1521.56 1175.28C1525 1174.98 1528.03 1177.52 1528.34 1180.95C1528.59 1183.84 1526.84 1186.44 1524.23 1187.38C1523.74 1187.56 1523.22 1187.68 1522.67 1187.73ZM1662.87 1125.22C1660.66 1122.57 1661.02 1118.63 1663.67 1116.42C1671.64 1109.76 1679.27 1102.56 1686.37 1094.99C1688.73 1092.48 1692.68 1092.35 1695.2 1094.7C1697.72 1097.06 1697.85 1101.01 1695.49 1103.53C1688.05 1111.47 1680.04 1119.04 1671.68 1126.01C1671.1 1126.49 1670.46 1126.85 1669.79 1127.1C1667.39 1127.96 1664.6 1127.29 1662.87 1125.22ZM1457.39 1185.6C1446.65 1183.93 1435.89 1181.58 1425.42 1178.63C1422.1 1177.69 1420.17 1174.23 1421.1 1170.91C1422.04 1167.59 1425.49 1165.65 1428.82 1166.6C1438.8 1169.42 1449.06 1171.65 1459.31 1173.24C1462.72 1173.77 1465.05 1176.96 1464.52 1180.38C1464.16 1182.72 1462.54 1184.55 1460.46 1185.3C1459.51 1185.64 1458.46 1185.76 1457.39 1185.6ZM1394.52 1167.87C1384.47 1163.66 1374.58 1158.81 1365.14 1153.45C1362.14 1151.75 1361.09 1147.94 1362.79 1144.94C1364.49 1141.94 1368.31 1140.88 1371.31 1142.59C1380.32 1147.7 1389.75 1152.32 1399.34 1156.33C1402.53 1157.66 1404.03 1161.33 1402.7 1164.51C1401.99 1166.19 1400.64 1167.41 1399.05 1167.98C1397.63 1168.49 1396.02 1168.49 1394.52 1167.87ZM1337.7 1135.59C1328.94 1129.1 1320.5 1122.01 1312.63 1114.54C1310.12 1112.16 1310.02 1108.2 1312.4 1105.7C1314.77 1103.2 1318.73 1103.1 1321.23 1105.47C1328.74 1112.6 1336.79 1119.36 1345.14 1125.54C1347.92 1127.6 1348.5 1131.51 1346.44 1134.28C1345.68 1135.32 1344.67 1136.04 1343.55 1136.44C1341.65 1137.13 1339.45 1136.88 1337.7 1135.59Z" />
						<path id="&lt;Path&gt;" class="shp1" d="M1713.63 1080.28C1714.77 1079.88 1715.79 1079.14 1716.56 1078.09C1719.71 1073.77 1722.75 1069.33 1725.59 1064.91C1727.45 1062.01 1726.61 1058.14 1723.71 1056.27C1720.81 1054.42 1716.94 1055.25 1715.07 1058.15C1712.36 1062.37 1709.46 1066.6 1706.46 1070.73C1704.42 1073.51 1705.04 1077.43 1707.83 1079.46C1709.57 1080.72 1711.75 1080.96 1713.63 1080.28Z" />
					</g>
					<g id="&lt;Group&gt;">
						<path id="&lt;Compound Path&gt;" class="shp1" d="M1696.72 962.51C1697.17 961.24 1696.76 959.82 1695.71 958.98L1665.53 935.04C1667.48 917.16 1666.59 898.84 1662.61 880.77L1690.01 853.73C1690.97 852.78 1691.22 851.33 1690.64 850.11L1670.68 808.44C1670.09 807.23 1668.8 806.51 1667.46 806.67L1629.22 811.07C1617.63 796.64 1603.91 784.47 1588.75 774.78L1589.01 736.27C1589.01 734.92 1588.16 733.71 1586.89 733.26L1543.32 717.92C1542.04 717.47 1540.62 717.88 1539.79 718.93L1515.85 749.11C1497.97 747.16 1479.65 748.05 1461.57 752.03L1434.53 724.63C1433.58 723.67 1432.13 723.42 1430.91 724L1389.24 743.96C1388.03 744.54 1387.31 745.84 1387.47 747.18L1391.87 785.42C1377.44 797.01 1365.27 810.73 1355.59 825.89L1317.07 825.63C1315.72 825.63 1314.51 826.47 1314.06 827.75L1298.72 871.32C1298.27 872.6 1298.68 874.01 1299.74 874.85L1329.91 898.79C1327.96 916.67 1328.85 934.99 1332.83 953.07L1305.43 980.11C1304.47 981.06 1304.22 982.51 1304.8 983.73L1324.76 1025.39C1325.35 1026.61 1326.64 1027.33 1327.98 1027.17L1366.22 1022.76C1377.81 1037.19 1391.53 1049.37 1406.69 1059.05L1406.44 1097.57C1406.43 1098.92 1407.28 1100.13 1408.55 1100.57L1452.13 1115.92C1453.4 1116.37 1454.82 1115.96 1455.66 1114.9L1479.59 1084.73C1497.48 1086.68 1515.8 1085.79 1533.87 1081.81L1560.91 1109.21C1561.86 1110.17 1563.31 1110.42 1564.53 1109.84L1606.2 1089.88C1607.41 1089.29 1608.13 1088 1607.97 1086.66L1603.57 1048.42C1618 1036.83 1630.17 1023.11 1639.86 1007.95L1678.37 1008.2C1679.72 1008.21 1680.93 1007.36 1681.38 1006.09L1696.72 962.51Z" />
						<g id="&lt;Group&gt;">
							<path id="&lt;Compound Path&gt;" fill-rule="evenodd" class="shp2" d="M1507.09 963.25C1494.71 965.76 1482.1 963.29 1471.58 956.31C1461.06 949.33 1453.89 938.67 1451.39 926.29C1446.22 900.74 1462.78 875.8 1488.35 870.58C1513.91 865.42 1538.89 882.01 1544.05 907.55C1546.56 919.92 1544.09 932.54 1537.11 943.06C1531.43 951.61 1523.33 957.95 1513.84 961.37C1511.66 962.15 1509.4 962.78 1507.09 963.25ZM1463.64 923.81C1465.48 932.91 1470.75 940.76 1478.49 945.9C1486.23 951.03 1495.51 952.84 1504.61 951C1513.71 949.15 1521.56 943.89 1526.7 936.14C1531.83 928.41 1533.64 919.13 1531.8 910.03C1528 891.23 1509.63 879.04 1490.83 882.83C1489.14 883.18 1487.5 883.64 1485.91 884.21C1469.97 889.95 1460.18 906.71 1463.64 923.81Z" />
						</g>
						<path id="&lt;Path&gt;" class="shp2" d="M1536.65 1027.31C1540.37 1025.97 1544.05 1024.43 1547.69 1022.69C1554.92 1019.23 1561.8 1015.03 1568.17 1010.19C1568.45 1009.97 1568.73 1009.75 1569.02 1009.53C1571.22 1007.83 1571.97 1004.96 1571.08 1002.48C1570.86 1001.88 1570.54 1001.3 1570.13 1000.77C1568.02 998.04 1564.1 997.56 1561.37 999.66C1555.47 1004.23 1549.05 1008.18 1542.29 1011.41L1542.29 1011.41C1541.92 1011.59 1541.55 1011.77 1541.18 1011.94C1525.12 1019.44 1507.79 1022.66 1490.56 1021.61C1481.2 1021.03 1471.86 1019.19 1462.77 1016.08C1462.69 1016.06 1462.62 1016.03 1462.55 1016.01C1462.32 1015.93 1462.09 1015.85 1461.87 1015.77C1435.36 1006.43 1414.07 987.33 1401.93 961.98C1400.35 958.7 1398.96 955.37 1397.74 951.99C1389.56 929.28 1389.44 904.64 1397.57 881.56C1406.91 855.05 1426.01 833.76 1451.36 821.62C1476.69 809.49 1505.27 807.93 1531.78 817.26C1558.29 826.6 1579.58 845.7 1591.72 871.05C1593.27 874.28 1594.65 877.57 1595.85 880.91C1601.07 895.41 1603.06 910.87 1601.62 926.22C1601.53 927.17 1601.66 928.08 1601.96 928.92C1602.76 931.12 1604.77 932.79 1607.26 933.03C1610.7 933.34 1613.74 930.83 1614.07 927.38C1615.67 910.21 1613.45 892.9 1607.61 876.69C1606.27 872.94 1604.73 869.26 1603 865.65C1589.41 837.29 1565.59 815.92 1535.93 805.47C1506.27 795.03 1474.32 796.73 1445.96 810.35C1417.6 823.93 1396.23 847.75 1385.78 877.41C1376.69 903.23 1376.82 930.79 1385.97 956.21C1387.33 959.98 1388.89 963.71 1390.65 967.38C1416.96 1022.29 1480.56 1047.52 1536.65 1027.31Z" />
					</g>
				</g>
			</g>
			<path id="&lt;Path&gt;" class="shp3" d="M3223.49 3019.97L486.51 3019.97C469.66 3019.97 456 3006.3 456 2989.45L456 979.27C456 962.42 469.66 948.76 486.51 948.76L3223.49 948.76C3240.34 948.76 3254 962.42 3254 979.27L3254 2989.45C3254 3006.3 3240.34 3019.97 3223.49 3019.97Z" />
			<path id="&lt;Path&gt;" class="shp4" d="M3065.58 2939.24L620.69 2939.24C563.88 2939.24 517.82 2893.19 517.82 2836.38L517.82 1116.03C517.82 1059.22 563.88 1013.16 620.69 1013.16L3065.58 1013.16C3122.39 1013.16 3168.45 1059.22 3168.45 1116.03L3168.45 2836.38C3168.45 2893.19 3122.39 2939.24 3065.58 2939.24Z" />
			<path id="&lt;Path&gt;" class="shp2" d="M3038.02 2913.6L648.34 2913.6C591.53 2913.6 545.48 2867.55 545.48 2810.73L545.48 1164.75C545.48 1107.94 591.53 1061.89 648.34 1061.89L3038.02 1061.89C3094.83 1061.89 3140.89 1107.94 3140.89 1164.75L3140.89 2810.73C3140.89 2867.55 3094.83 2913.6 3038.02 2913.6Z" />
			<path id="&lt;Path&gt;" class="shp5" d="M1375.54 2751.65L1345 2751.65C1341.44 2751.65 1338.56 2748.77 1338.56 2745.21L1338.56 1121.02C1338.56 1117.46 1341.44 1114.57 1345 1114.57L1375.54 1114.57C1379.1 1114.57 1381.98 1117.46 1381.98 1121.02L1381.98 2745.21C1381.98 2748.77 1379.1 2751.65 1375.54 2751.65Z" />
			<path id="&lt;Path&gt;" class="shp5" d="M2295.89 2742.81L2265.35 2742.81C2261.79 2742.81 2258.91 2739.93 2258.91 2736.37L2258.91 1112.18C2258.91 1108.62 2261.79 1105.74 2265.35 1105.74L2295.89 1105.74C2299.45 1105.74 2302.33 1108.62 2302.33 1112.18L2302.33 2736.37C2302.33 2739.93 2299.45 2742.81 2295.89 2742.81Z" />
			<g id="&lt;Group&gt;">
				<g id="&lt;Group&gt;">
					<path id="&lt;Path&gt;" class="shp6" d="M3081.56 1788.19L2405.12 1788.19C2393.64 1788.19 2384.34 1778.89 2384.34 1767.41L2384.34 1401.16C2384.34 1389.69 2393.64 1380.39 2405.12 1380.39L3081.56 1380.39C3093.03 1380.39 3102.33 1389.69 3102.33 1401.16L3102.33 1767.41C3102.33 1778.89 3093.03 1788.19 3081.56 1788.19Z" />
					<path id="&lt;Path&gt;" class="shp4" d="M3007.21 1770.87L2469.88 1770.87C2431.2 1770.87 2399.84 1739.51 2399.84 1700.83L2399.84 1467.74C2399.84 1429.06 2431.2 1397.71 2469.88 1397.71L3007.21 1397.71C3045.89 1397.71 3077.24 1429.06 3077.24 1467.74L3077.24 1700.83C3077.24 1739.51 3045.89 1770.87 3007.21 1770.87Z" />
				</g>
				<path id="&lt;Path&gt;" class="shp7" d="M3038.66 1529.37L2721.11 1529.37C2718.07 1529.37 2715.6 1526.9 2715.6 1523.86L2715.6 1497.69C2715.6 1494.65 2718.07 1492.18 2721.11 1492.18L3038.66 1492.18C3041.71 1492.18 3044.18 1494.65 3044.18 1497.69L3044.18 1523.86C3044.18 1526.9 3041.71 1529.37 3038.66 1529.37Z" />
				<path id="&lt;Path&gt;" class="shp8" d="M3038.66 1609.09L2721.11 1609.09C2718.07 1609.09 2715.6 1606.62 2715.6 1603.57L2715.6 1577.41C2715.6 1574.36 2718.07 1571.89 2721.11 1571.89L3038.66 1571.89C3041.71 1571.89 3044.18 1574.36 3044.18 1577.41L3044.18 1603.57C3044.18 1606.62 3041.71 1609.09 3038.66 1609.09Z" />
				<path id="&lt;Path&gt;" class="shp9" d="M3038.66 1685.55L2721.11 1685.55C2718.07 1685.55 2715.6 1683.08 2715.6 1680.03L2715.6 1653.87C2715.6 1650.82 2718.07 1648.35 2721.11 1648.35L3038.66 1648.35C3041.71 1648.35 3044.18 1650.82 3044.18 1653.87L3044.18 1680.03C3044.18 1683.08 3041.71 1685.55 3038.66 1685.55Z" />
				<path id="&lt;Path&gt;" class="shp10" d="M2574.97 1554.17L2451.18 1554.17C2447.13 1554.17 2443.84 1550.89 2443.84 1546.84L2443.84 1445.78C2443.84 1441.73 2447.13 1438.45 2451.18 1438.45L2574.97 1438.45C2579.02 1438.45 2582.3 1441.73 2582.3 1445.78L2582.3 1546.84C2582.3 1550.89 2579.02 1554.17 2574.97 1554.17Z" />
				<path id="&lt;Path&gt;" class="shp11" d="M2472.16 1492.22L2472.16 1492.22C2477.17 1489.28 2483.63 1491.04 2486.46 1496.12L2499.79 1520.01C2501.13 1522.4 2504.62 1522.25 2505.74 1519.75L2538.8 1446.15C2540.45 1442.48 2545.92 1443.72 2545.86 1447.74C2545.52 1470.26 2539.54 1513.05 2503.57 1548.87C2490.36 1543.74 2478.43 1529.48 2467.78 1506.11C2465.48 1501.05 2467.36 1495.04 2472.16 1492.22Z" />
			</g>
			<g id="&lt;Group&gt;">
				<g id="&lt;Group&gt;">
					<path id="&lt;Path&gt;" class="shp12" d="M2170.91 1779.16L1494.46 1779.16C1482.99 1779.16 1473.69 1769.86 1473.69 1758.38L1473.69 1392.14C1473.69 1380.66 1482.99 1371.36 1494.46 1371.36L2170.91 1371.36C2182.38 1371.36 2191.68 1380.66 2191.68 1392.14L2191.68 1758.38C2191.68 1769.86 2182.38 1779.16 2170.91 1779.16Z" />
					<path id="&lt;Path&gt;" class="shp4" d="M2096.55 1761.84L1559.23 1761.84C1520.54 1761.84 1489.19 1730.49 1489.19 1691.8L1489.19 1458.71C1489.19 1420.03 1520.54 1388.68 1559.23 1388.68L2096.55 1388.68C2135.23 1388.68 2166.59 1420.03 2166.59 1458.71L2166.59 1691.8C2166.59 1730.49 2135.23 1761.84 2096.55 1761.84Z" />
				</g>
				<path id="&lt;Path&gt;" class="shp13" d="M2128.01 1520.35L1810.46 1520.35C1807.41 1520.35 1804.94 1517.88 1804.94 1514.83L1804.94 1488.67C1804.94 1485.62 1807.41 1483.15 1810.46 1483.15L2128.01 1483.15C2131.06 1483.15 2133.53 1485.62 2133.53 1488.67L2133.53 1514.83C2133.53 1517.88 2131.06 1520.35 2128.01 1520.35Z" />
				<path id="&lt;Path&gt;" class="shp14" d="M2128.01 1600.06L1810.46 1600.06C1807.41 1600.06 1804.94 1597.59 1804.94 1594.54L1804.94 1568.38C1804.94 1565.33 1807.41 1562.86 1810.46 1562.86L2128.01 1562.86C2131.06 1562.86 2133.53 1565.33 2133.53 1568.38L2133.53 1594.54C2133.53 1597.59 2131.06 1600.06 2128.01 1600.06Z" />
				<path id="&lt;Path&gt;" class="shp15" d="M2128.01 1676.52L1810.46 1676.52C1807.41 1676.52 1804.94 1674.05 1804.94 1671L1804.94 1644.84C1804.94 1641.79 1807.41 1639.32 1810.46 1639.32L2128.01 1639.32C2131.06 1639.32 2133.53 1641.79 2133.53 1644.84L2133.53 1671C2133.53 1674.05 2131.06 1676.52 2128.01 1676.52Z" />
				<path id="&lt;Path&gt;" class="shp16" d="M1664.32 1545.14L1540.52 1545.14C1536.47 1545.14 1533.19 1541.86 1533.19 1537.81L1533.19 1436.75C1533.19 1432.7 1536.47 1429.42 1540.52 1429.42L1664.32 1429.42C1668.37 1429.42 1671.65 1432.7 1671.65 1436.75L1671.65 1537.81C1671.65 1541.86 1668.37 1545.14 1664.32 1545.14Z" />
			</g>
			<g id="&lt;Group&gt;">
				<g id="&lt;Group&gt;">
					<path id="&lt;Path&gt;" class="shp17" d="M2172.99 2247.87L1496.55 2247.87C1485.08 2247.87 1475.78 2238.57 1475.78 2227.09L1475.78 1860.84C1475.78 1849.37 1485.08 1840.07 1496.55 1840.07L2172.99 1840.07C2184.47 1840.07 2193.77 1849.37 2193.77 1860.84L2193.77 2227.09C2193.77 2238.57 2184.47 2247.87 2172.99 2247.87Z" />
					<path id="&lt;Path&gt;" class="shp4" d="M2098.64 2230.55L1561.31 2230.55C1522.63 2230.55 1491.28 2199.19 1491.28 2160.51L1491.28 1927.42C1491.28 1888.74 1522.63 1857.39 1561.31 1857.39L2098.64 1857.39C2137.32 1857.39 2168.68 1888.74 2168.68 1927.42L2168.68 2160.51C2168.68 2199.19 2137.32 2230.55 2098.64 2230.55Z" />
				</g>
				<path id="&lt;Path&gt;" class="shp18" d="M2130.1 1989.05L1812.55 1989.05C1809.5 1989.05 1807.03 1986.58 1807.03 1983.54L1807.03 1957.37C1807.03 1954.33 1809.5 1951.86 1812.55 1951.86L2130.1 1951.86C2133.14 1951.86 2135.61 1954.33 2135.61 1957.37L2135.61 1983.54C2135.61 1986.58 2133.14 1989.05 2130.1 1989.05Z" />
				<path id="&lt;Path&gt;" class="shp19" d="M2130.1 2068.77L1812.55 2068.77C1809.5 2068.77 1807.03 2066.3 1807.03 2063.25L1807.03 2037.09C1807.03 2034.04 1809.5 2031.57 1812.55 2031.57L2130.1 2031.57C2133.14 2031.57 2135.61 2034.04 2135.61 2037.09L2135.61 2063.25C2135.61 2066.3 2133.14 2068.77 2130.1 2068.77Z" />
				<path id="&lt;Path&gt;" class="shp20" d="M2130.1 2145.23L1812.55 2145.23C1809.5 2145.23 1807.03 2142.76 1807.03 2139.71L1807.03 2113.55C1807.03 2110.5 1809.5 2108.03 1812.55 2108.03L2130.1 2108.03C2133.14 2108.03 2135.61 2110.5 2135.61 2113.55L2135.61 2139.71C2135.61 2142.76 2133.14 2145.23 2130.1 2145.23Z" />
				<path id="&lt;Path&gt;" class="shp21" d="M1666.4 2013.85L1542.61 2013.85C1538.56 2013.85 1535.28 2010.57 1535.28 2006.52L1535.28 1905.46C1535.28 1901.41 1538.56 1898.13 1542.61 1898.13L1666.4 1898.13C1670.45 1898.13 1673.74 1901.41 1673.74 1905.46L1673.74 2006.52C1673.74 2010.57 1670.45 2013.85 1666.4 2013.85Z" />
			</g>
			<g id="&lt;Group&gt;">
				<g id="&lt;Group&gt;">
					<path id="&lt;Path&gt;" class="shp22" d="M1259.32 1755.23L582.88 1755.23C571.41 1755.23 562.11 1745.93 562.11 1734.46L562.11 1368.21C562.11 1356.73 571.41 1347.43 582.88 1347.43L1259.32 1347.43C1270.8 1347.43 1280.1 1356.73 1280.1 1368.21L1280.1 1734.46C1280.1 1745.93 1270.8 1755.23 1259.32 1755.23Z" />
					<path id="&lt;Path&gt;" class="shp4" d="M1184.97 1737.92L647.64 1737.92C608.96 1737.92 577.6 1706.56 577.6 1667.88L577.6 1434.79C577.6 1396.11 608.96 1364.75 647.64 1364.75L1184.97 1364.75C1223.65 1364.75 1255.01 1396.11 1255.01 1434.79L1255.01 1667.88C1255.01 1706.56 1223.65 1737.92 1184.97 1737.92Z" />
				</g>
				<path id="&lt;Path&gt;" class="shp23" d="M1216.43 1496.42L898.88 1496.42C895.83 1496.42 893.36 1493.95 893.36 1490.9L893.36 1464.74C893.36 1461.69 895.83 1459.22 898.88 1459.22L1216.43 1459.22C1219.47 1459.22 1221.94 1461.69 1221.94 1464.74L1221.94 1490.9C1221.94 1493.95 1219.47 1496.42 1216.43 1496.42Z" />
				<path id="&lt;Path&gt;" class="shp24" d="M1216.43 1576.13L898.88 1576.13C895.83 1576.13 893.36 1573.66 893.36 1570.61L893.36 1544.45C893.36 1541.4 895.83 1538.93 898.88 1538.93L1216.43 1538.93C1219.47 1538.93 1221.94 1541.4 1221.94 1544.45L1221.94 1570.61C1221.94 1573.66 1219.47 1576.13 1216.43 1576.13Z" />
				<path id="&lt;Path&gt;" class="shp25" d="M1216.43 1652.59L898.88 1652.59C895.83 1652.59 893.36 1650.12 893.36 1647.08L893.36 1620.91C893.36 1617.87 895.83 1615.4 898.88 1615.4L1216.43 1615.4C1219.47 1615.4 1221.94 1617.87 1221.94 1620.91L1221.94 1647.08C1221.94 1650.12 1219.47 1652.59 1216.43 1652.59Z" />
				<path id="&lt;Path&gt;" class="shp26" d="M752.73 1521.22L628.94 1521.22C624.89 1521.22 621.61 1517.93 621.61 1513.88L621.61 1412.82C621.61 1408.77 624.89 1405.49 628.94 1405.49L752.73 1405.49C756.78 1405.49 760.07 1408.77 760.07 1412.82L760.07 1513.88C760.07 1517.93 756.78 1521.22 752.73 1521.22Z" />
			</g>
			<g id="&lt;Group&gt;">
				<g id="&lt;Group&gt;">
					<path id="&lt;Path&gt;" class="shp27" d="M3081.56 2260.27L2405.12 2260.27C2393.64 2260.27 2384.34 2250.97 2384.34 2239.49L2384.34 1873.24C2384.34 1861.77 2393.64 1852.47 2405.12 1852.47L3081.56 1852.47C3093.03 1852.47 3102.33 1861.77 3102.33 1873.24L3102.33 2239.49C3102.33 2250.97 3093.03 2260.27 3081.56 2260.27Z" />
					<path id="&lt;Path&gt;" class="shp4" d="M3007.21 2242.95L2469.88 2242.95C2431.2 2242.95 2399.84 2211.59 2399.84 2172.91L2399.84 1939.82C2399.84 1901.14 2431.2 1869.78 2469.88 1869.78L3007.21 1869.78C3045.89 1869.78 3077.24 1901.14 3077.24 1939.82L3077.24 2172.91C3077.24 2211.59 3045.89 2242.95 3007.21 2242.95Z" />
				</g>
				<path id="&lt;Path&gt;" class="shp28" d="M3038.66 2001.45L2721.11 2001.45C2718.07 2001.45 2715.6 1998.98 2715.6 1995.94L2715.6 1969.77C2715.6 1966.73 2718.07 1964.26 2721.11 1964.26L3038.66 1964.26C3041.71 1964.26 3044.18 1966.73 3044.18 1969.77L3044.18 1995.94C3044.18 1998.98 3041.71 2001.45 3038.66 2001.45Z" />
				<path id="&lt;Path&gt;" class="shp29" d="M3038.66 2081.17L2721.11 2081.17C2718.07 2081.17 2715.6 2078.7 2715.6 2075.65L2715.6 2049.49C2715.6 2046.44 2718.07 2043.97 2721.11 2043.97L3038.66 2043.97C3041.71 2043.97 3044.18 2046.44 3044.18 2049.49L3044.18 2075.65C3044.18 2078.7 3041.71 2081.17 3038.66 2081.17Z" />
				<path id="&lt;Path&gt;" class="shp30" d="M3038.66 2157.63L2721.11 2157.63C2718.07 2157.63 2715.6 2155.16 2715.6 2152.11L2715.6 2125.95C2715.6 2122.9 2718.07 2120.43 2721.11 2120.43L3038.66 2120.43C3041.71 2120.43 3044.18 2122.9 3044.18 2125.95L3044.18 2152.11C3044.18 2155.16 3041.71 2157.63 3038.66 2157.63Z" />
				<path id="&lt;Path&gt;" class="shp31" d="M2574.97 2026.25L2451.18 2026.25C2447.13 2026.25 2443.84 2022.97 2443.84 2018.92L2443.84 1917.86C2443.84 1913.81 2447.13 1910.52 2451.18 1910.52L2574.97 1910.52C2579.02 1910.52 2582.3 1913.81 2582.3 1917.86L2582.3 2018.92C2582.3 2022.97 2579.02 2026.25 2574.97 2026.25Z" />
			</g>
			<g id="&lt;Group&gt;">
				<path id="&lt;Path&gt;" class="shp32" d="M2875.6 2231.36C2961.87 2219.59 3016.81 2222.07 3040.4 2238.81L2983.15 2340.72C2897.91 2343.54 2823.54 2323.05 2760.05 2279.25C2776.2 2259.89 2787.02 2238.88 2793.81 2222.61C2817.93 2231.17 2845.41 2235.48 2875.6 2231.36Z" />
				<path id="&lt;Path&gt;" class="shp33" d="M2661.96 2051.32C2661.92 2047.14 2667.5 2045.71 2669.47 2049.39L2687.93 2083.91C2691.49 2090.58 2692.93 2098.18 2692.03 2105.69L2687.3 2126.6C2686.09 2136.74 2689.26 2146.89 2696.05 2154.52C2712.29 2172.76 2746.59 2205.85 2793.81 2222.61C2787.02 2238.88 2776.2 2259.89 2760.05 2279.25C2725.1 2255.14 2694.54 2221.63 2676.3 2175.02C2668.64 2173.11 2663.23 2166.28 2663.11 2158.38L2661.96 2051.32Z" />
				<g id="&lt;Group&gt;">
					<path id="&lt;Path&gt;" class="shp34" d="M3085.84 3181.4C3090.97 3191.95 3092.77 3211.09 3091.23 3238.82C3091.02 3242.69 3087.6 3245.63 3083.74 3245.2L3010.49 3236.94C3007.54 3236.6 3005.77 3233.48 3007.02 3230.79C3012.75 3218.57 3029.22 3189.06 3060.17 3174.63L3085.84 3181.4Z" />
					<path id="&lt;Path&gt;" class="shp35" d="M3092.18 3153.75L3084.12 3188.02C3083.42 3190.98 3080.8 3193.11 3077.76 3193.12C3073.71 3193.13 3067.85 3192.8 3062.29 3191.23C3057.24 3189.8 3054.06 3184.8 3054.65 3179.59L3058.43 3146.05L3092.18 3153.75Z" />
					<path id="&lt;Path&gt;" class="shp36" d="M2905.26 3159.41C2914.3 3174.26 2918.47 3191.71 2917.76 3211.77C2917.51 3218.85 2911.44 3224.35 2904.35 3224.17L2789.9 3221.32C2784.54 3221.18 2782.54 3214.24 2787 3211.27C2809.04 3196.61 2852.31 3169.26 2883.38 3158.86L2905.26 3159.41Z" />
					<path id="&lt;Path&gt;" class="shp37" d="M2915.08 3126.45L2904.36 3169.21C2903.17 3173.99 2898.31 3177.04 2893.55 3175.76C2890.65 3174.98 2887.26 3173.59 2883.67 3171.13C2880.26 3168.79 2878.66 3164.55 2879.55 3160.51L2890.95 3108.64L2915.08 3126.45Z" />
					<path id="&lt;Path&gt;" class="shp38" d="M3144.7 2542.07C3163.15 2562.44 3173.08 2583.71 3174.48 2605.87C3175.89 2628.03 3149.3 2814.85 3094.7 3166.33C3073.83 3167.43 3058.48 3164.18 3048.64 3156.59C3061.96 2925.99 3066.85 2783.68 3063.3 2729.64C2986.61 2961.42 2938.93 3097.98 2920.26 3139.32C2900.26 3139.49 2887.28 3137.35 2881.34 3132.87C2929.12 2826.6 2964.31 2647.03 2986.91 2594.17L3144.7 2542.07Z" />
					<path id="&lt;Path&gt;" class="shp4" d="M3065.83 2718.15C3065.48 2718.15 3065.12 2718.09 3064.78 2717.96C3063.27 2717.38 3062.52 2715.69 3063.1 2714.19L3081.8 2665.59C3082.06 2664.91 3082.57 2664.35 3083.23 2664.02L3113.47 2649.11C3114.91 2648.4 3116.66 2649 3117.38 2650.44C3118.09 2651.89 3117.49 2653.64 3116.05 2654.35L3086.84 2668.75L3068.55 2716.28C3068.1 2717.44 3067 2718.15 3065.83 2718.15Z" />
					<path id="&lt;Path&gt;" class="shp39" d="M2827.01 2253.9C2878.08 2209.97 2967.31 2197.58 3018.55 2194.13C3041 2192.62 3061.31 2207.31 3066.74 2229.15C3082.49 2292.44 3126.13 2457.41 3134.98 2485.92C3142.24 2509.31 3149.99 2532.22 3154.94 2546.56C3157.9 2555.12 3153.42 2564.47 3144.87 2567.46C3100.32 2583.07 3021.7 2597.53 2989.87 2603.05C2982.86 2604.26 2976.69 2598.41 2977.48 2591.35C2978.16 2585.36 2977.19 2579.3 2974.69 2573.82L2879.9 2366.14C2798.05 2438.61 2733.51 2438.8 2686.55 2415.63C2697.65 2391.12 2705.91 2366.25 2711.37 2341.01C2760.51 2338.19 2799.05 2309.15 2827.01 2253.9Z" />
					<path id="&lt;Path&gt;" class="shp40" d="M2593.38 2314L2608.4 2298.07C2647.37 2331.84 2681.91 2342.7 2711.37 2341.01C2705.91 2366.25 2697.65 2391.12 2686.55 2415.63C2645.32 2395.27 2614.26 2361.4 2593.38 2314Z" />
					<path id="&lt;Path&gt;" class="shp41" d="M2602.55 2315.35L2528.71 2309.92L2465.29 2264.49C2472.22 2261.16 2493.54 2265.71 2529.23 2278.14C2568.17 2276.66 2592.83 2276.5 2603.19 2277.66C2616.1 2279.1 2612.17 2297.46 2610.46 2303.64C2610.23 2304.48 2610.03 2305.15 2609.86 2305.65L2602.55 2315.35Z" />
					<path id="&lt;Path&gt;" class="shp42" d="M2959.64 2096.23L2987.76 2195.26C2955.73 2212.47 2927.87 2218.76 2904.19 2214.1L2894.43 2126.81L2959.64 2096.23Z" />
					<g id="&lt;Group&gt;">
						<path id="&lt;Path&gt;" class="shp43" d="M2895.35 2007.34C2872.78 2043.44 2859.42 2071.53 2855.27 2091.62C2849.04 2121.76 2839.54 2140.51 2873.77 2151.88C2908 2163.24 2940.22 2150.16 2960.78 2122.28C2982.17 2093.68 2991.94 2072.73 2990.09 2059.43C2988.23 2046.13 2956.65 2028.77 2895.35 2007.34Z" />
						<path id="&lt;Path&gt;" class="shp44" d="M2952.02 2098.72L2950.15 2097.53C2947.77 2096.03 2947.13 2092.84 2948.78 2090.56C2955.17 2081.72 2968.1 2061.22 2956.39 2054.24C2941.29 2045.24 2879.52 2022.74 2869.15 1998.08C2859.18 1974.38 2875.07 1948.08 2893.86 1942.73C2895.11 1942.37 2896.44 1943 2896.87 1944.24L2897.92 1947.23C2898.64 1949.28 2901.49 1949.41 2902.4 1947.44C2903.26 1945.54 2905.96 1945.55 2906.79 1947.46C2910 1954.86 2919.77 1967.52 2949.44 1977.71C2991.6 1992.18 3017.64 2014.01 3013.88 2044.07C3013.64 2045.98 3015.51 2047.34 3017.28 2046.6C3020.78 2045.12 3026.04 2044.97 3032.02 2051.75C3042.43 2063.54 3033.68 2088.78 3004.39 2106.25C3003 2107.08 3002.72 2109.02 3003.93 2110.09C3008.21 2113.88 3014.17 2122.26 2994.43 2129.3C2974.02 2136.58 2960.02 2133.65 2954.72 2131.94C2953.4 2131.51 2952.73 2130.07 2953.22 2128.78L2962.95 2103.31C2963.51 2101.87 2962.58 2100.29 2961.06 2100.06L2952.02 2098.72Z" />
						<path id="&lt;Path&gt;" class="shp45" d="M2950.1 2104.11C2960.19 2080.41 2970.25 2072.84 2980.27 2081.4C2995.31 2094.25 2965.48 2121.56 2951.94 2120.96L2950.1 2104.11Z" />
					</g>
				</g>
				<path id="&lt;Path&gt;" class="shp46" d="M2460.91 2105.25L2460.91 2105.25C2476.9 2095.87 2497.49 2101.47 2506.53 2117.66L2549.02 2193.85C2553.28 2201.47 2564.41 2200.99 2567.98 2193.03L2673.39 1958.35C2678.65 1946.65 2696.09 1950.6 2695.89 1963.44C2694.82 2035.22 2675.77 2171.66 2561.08 2285.88C2518.94 2269.5 2480.91 2224.05 2446.97 2149.53C2439.62 2133.39 2445.61 2114.23 2460.91 2105.25Z" />
			</g>
			<path id="&lt;Path&gt;" class="shp5" d="M1266.78 1247.15L575.42 1247.15C568.07 1247.15 562.11 1241.19 562.11 1233.83L562.11 1096.92C562.11 1089.56 568.07 1083.6 575.42 1083.6L1266.78 1083.6C1274.14 1083.6 1280.1 1089.56 1280.1 1096.92L1280.1 1233.83C1280.1 1241.19 1274.14 1247.15 1266.78 1247.15Z" />
			<path id="&lt;Path&gt;" class="shp5" d="M2169.5 1250.52L1478.14 1250.52C1470.78 1250.52 1464.82 1244.56 1464.82 1237.2L1464.82 1100.29C1464.82 1092.93 1470.78 1086.97 1478.14 1086.97L2169.5 1086.97C2176.85 1086.97 2182.81 1092.93 2182.81 1100.29L2182.81 1237.2C2182.81 1244.56 2176.85 1250.52 2169.5 1250.52Z" />
			<path id="&lt;Path&gt;" class="shp5" d="M3077.48 1250.52L2386.12 1250.52C2378.77 1250.52 2372.8 1244.56 2372.8 1237.2L2372.8 1100.29C2372.8 1092.93 2378.77 1086.97 2386.12 1086.97L3077.48 1086.97C3084.84 1086.97 3090.8 1092.93 3090.8 1100.29L3090.8 1237.2C3090.8 1244.56 3084.84 1250.52 3077.48 1250.52Z" />
			<g id="&lt;Group&gt;">
				<g id="&lt;Group&gt;">
					<g id="&lt;Group&gt;">
						<path id="&lt;Path&gt;" class="shp4" d="M676.12 3015.39C577.35 2787.22 565.35 2552.93 640.13 2312.55C640.87 2310.19 645.03 2310.64 645.34 2313.12C672.38 2531.2 680.44 2767.39 676.12 3015.39Z" />
						<path id="&lt;Path&gt;" class="shp5" d="M675.53 3008.19C674.7 3008.19 673.93 3007.64 673.7 3006.8C647.42 2913.42 637.42 2754.75 633.66 2638.08C629.59 2511.74 631.76 2406.07 631.78 2405.02C631.8 2403.97 632.5 2403.15 633.72 2403.16C634.77 2403.18 635.61 2404.05 635.58 2405.1C635.56 2406.16 633.4 2511.73 637.47 2637.98C641.22 2754.43 651.18 2912.76 677.36 3005.77C677.65 3006.78 677.06 3007.83 676.05 3008.12C675.87 3008.16 675.7 3008.19 675.53 3008.19Z" />
					</g>
					<g id="&lt;Group&gt;">
						<path id="&lt;Path&gt;" class="shp4" d="M710.05 2959.61C649.03 2679.65 676.18 2398.01 791.49 2114.7C792.62 2111.92 796.73 2112.74 796.63 2115.72C787.3 2378.92 755.88 2662.58 710.05 2959.61Z" />
						<path id="&lt;Path&gt;" class="shp5" d="M710.98 2950.56C710.01 2950.56 709.18 2949.82 709.09 2948.83C688.49 2731.53 766.86 2229.94 767.66 2224.89C767.82 2223.86 768.78 2223.14 769.83 2223.31C770.87 2223.47 771.58 2224.45 771.42 2225.49C770.62 2230.52 692.32 2731.64 712.87 2948.48C712.97 2949.52 712.21 2950.45 711.16 2950.55C711.1 2950.55 711.04 2950.56 710.98 2950.56Z" />
					</g>
					<g id="&lt;Group&gt;">
						<path id="&lt;Path&gt;" class="shp4" d="M724.57 3073.48C695.34 2829.25 753.33 2597.24 898.55 2377.45C899.97 2375.3 903.94 2376.62 903.5 2379.1C865.14 2598.4 802.71 2831.45 724.57 3073.48Z" />
						<path id="&lt;Path&gt;" class="shp5" d="M726.7 3066.34C726.69 3066.34 726.68 3066.34 726.67 3066.34C725.62 3066.32 724.78 3065.45 724.8 3064.4C726.75 2967.41 764.19 2809.89 795.24 2694.82C828.88 2570.21 862.49 2467.16 862.83 2466.14C863.15 2465.14 864.23 2464.59 865.22 2464.92C866.22 2465.25 866.77 2466.32 866.44 2467.32C866.11 2468.34 832.52 2571.31 798.91 2695.83C767.91 2810.69 730.55 2967.88 728.61 3064.47C728.59 3065.51 727.74 3066.34 726.7 3066.34Z" />
					</g>
				</g>
				<path id="&lt;Path&gt;" class="shp4" d="M613.35 2870.72L814.72 2870.72C829.79 2870.72 841.07 2884.91 838.27 2899.72C826.24 2963.36 801.89 3019.58 776.58 3066.61C770.93 3077.12 759.98 3083.83 748.04 3083.83L682.34 3083.83C670.22 3083.83 659.11 3077.24 653.27 3066.63C621.68 3009.14 606.24 2952.09 593.35 2896.27C590.39 2883.41 600.15 2870.72 613.35 2870.72Z" />
			</g>
			<g id="&lt;Group&gt;">
				<g id="&lt;Group&gt;">
					<path id="&lt;Path&gt;" class="shp4" d="M2290.98 2974.12C2195.8 3079.07 2108.45 3109.36 2028.96 3065.01C1933.12 3011.54 2069.28 3025.51 2184.77 3000.25C2193.84 2998.27 2191.46 2984.72 2182.27 2985.94C2091.9 2997.92 1954.02 3007.71 1930.07 2960.59C1893.92 2889.46 1928.98 2912.53 2039.01 2922.81C2149.04 2933.08 2170.24 2905.91 2098.42 2888.99C2026.6 2872.07 1912.34 2909.5 1885.72 2874.69C1859.1 2839.89 1844.56 2770.8 1833.95 2741.09C1823.34 2711.38 1970.92 2666.79 2010.81 2705.8C2050.71 2744.8 2083.11 2831.87 2130.46 2847.76C2177.81 2863.66 2126.87 2786.64 2095.47 2746.89C2064.07 2707.14 2051.62 2677.6 2114.36 2687.08C2177.1 2696.56 2210.26 2773.13 2216.87 2830.29C2223.49 2887.44 2245.59 2919.41 2244.59 2891.14C2243.58 2862.86 2233.32 2776.14 2213.27 2750.07C2193.22 2724 2336.36 2755.82 2290.98 2974.12Z" />
					<path id="&lt;Path&gt;" class="shp47" d="M2279.36 2975.63C2278.74 2975.86 2278 2975.76 2277.46 2975.28C2154.9 2868.07 1949.36 2790.14 1947.29 2789.36C1946.32 2789 1945.83 2787.92 1946.2 2786.94C1946.56 2785.98 1947.64 2785.48 1948.61 2785.85C1950.68 2786.62 2156.86 2864.79 2279.93 2972.46C2280.71 2973.14 2280.79 2974.33 2280.11 2975.11C2279.9 2975.35 2279.64 2975.52 2279.36 2975.63Z" />
				</g>
				<g id="&lt;Group&gt;">
					<path id="&lt;Path&gt;" class="shp48" d="M2377.19 3074.66C2203.35 3080.4 2102.02 3029.28 2073.21 2921.3C2038.47 2791.13 2142.48 2923.11 2263.42 3003.34C2272.91 3009.64 2282.82 2995.97 2273.89 2988.91C2186.13 2919.48 2059.7 2806.29 2080.78 2744.92C2112.6 2652.28 2122.22 2702.9 2207.16 2808.68C2292.11 2914.46 2334.17 2909.94 2287.73 2832.17C2241.29 2754.39 2110.68 2685.63 2118.63 2632.44C2126.57 2579.24 2175.05 2507.39 2192.18 2472.65C2209.31 2437.92 2374.69 2529.94 2374.39 2598.43C2374.09 2666.93 2325.01 2769.87 2351.45 2825.19C2377.88 2880.51 2402.27 2769.82 2410.48 2708.17C2418.7 2646.53 2434.11 2610.32 2479.35 2673.73C2524.59 2737.14 2485.42 2831.79 2440.68 2886.45C2395.94 2941.1 2386.63 2987.9 2410.71 2962.86C2434.78 2937.82 2502.46 2854.69 2508.32 2814.74C2514.17 2774.79 2608.41 2928.17 2377.19 3074.66Z" />
					<path id="&lt;Path&gt;" class="shp47" d="M2365.93 3065.7C2365.19 3065.35 2364.65 3064.61 2364.61 3063.73C2354.43 2864.09 2247.53 2616.3 2246.45 2613.82C2245.95 2612.65 2246.48 2611.3 2247.65 2610.79C2248.81 2610.28 2250.17 2610.82 2250.68 2611.98C2251.76 2614.47 2358.99 2863.01 2369.21 3063.49C2369.27 3064.76 2368.3 3065.85 2367.03 3065.91C2366.64 3065.93 2366.26 3065.85 2365.93 3065.7Z" />
				</g>
			</g>
			<g id="&lt;Group&gt;">
				<g id="&lt;Group&gt;">
					<g id="&lt;Group&gt;">
						<path id="&lt;Path&gt;" class="shp49" d="M2065.54 2084.73L1275.93 2084.73C1264.46 2084.73 1255.16 2075.43 1255.16 2063.95L1255.16 1633.43C1255.16 1621.96 1264.46 1612.65 1275.93 1612.65L2065.54 1612.65C2077.02 1612.65 2086.32 1621.96 2086.32 1633.43L2086.32 2063.95C2086.32 2075.43 2077.02 2084.73 2065.54 2084.73Z" />
						<path id="&lt;Path&gt;" class="shp50" d="M2036.5 2064.68L1293.88 2064.68C1282.4 2064.68 1273.1 2055.38 1273.1 2043.91L1273.1 1653.48C1273.1 1642 1282.4 1632.7 1293.88 1632.7L2036.5 1632.7C2047.97 1632.7 2057.27 1642 2057.27 1653.48L2057.27 2043.91C2057.27 2055.38 2047.97 2064.68 2036.5 2064.68Z" />
					</g>
					<path id="&lt;Path&gt;" class="shp21" d="M2013.48 1785.12L1644.14 1785.12C1641.09 1785.12 1638.62 1782.65 1638.62 1779.61L1638.62 1747.58C1638.62 1744.53 1641.09 1742.06 1644.14 1742.06L2013.48 1742.06C2016.53 1742.06 2019 1744.53 2019 1747.58L2019 1779.61C2019 1782.65 2016.53 1785.12 2013.48 1785.12Z" />
					<path id="&lt;Path&gt;" class="shp21" d="M2013.48 1877.4L1644.14 1877.4C1641.09 1877.4 1638.62 1874.93 1638.62 1871.88L1638.62 1839.86C1638.62 1836.81 1641.09 1834.34 1644.14 1834.34L2013.48 1834.34C2016.53 1834.34 2019 1836.81 2019 1839.86L2019 1871.88C2019 1874.93 2016.53 1877.4 2013.48 1877.4Z" />
					<path id="&lt;Path&gt;" class="shp21" d="M2013.48 1965.91L1644.14 1965.91C1641.09 1965.91 1638.62 1963.44 1638.62 1960.4L1638.62 1928.37C1638.62 1925.32 1641.09 1922.85 1644.14 1922.85L2013.48 1922.85C2016.53 1922.85 2019 1925.32 2019 1928.37L2019 1960.4C2019 1963.44 2016.53 1965.91 2013.48 1965.91Z" />
					<path id="&lt;Path&gt;" class="shp21" d="M1476.99 1813.83L1331.37 1813.83C1327.32 1813.83 1324.04 1810.55 1324.04 1806.5L1324.04 1687.2C1324.04 1683.15 1327.32 1679.86 1331.37 1679.86L1476.99 1679.86C1481.04 1679.86 1484.32 1683.15 1484.32 1687.2L1484.32 1806.5C1484.32 1810.55 1481.04 1813.83 1476.99 1813.83Z" />
				</g>
				<g id="&lt;Group&gt;">
					<path id="&lt;Path&gt;" class="shp51" d="M1256.43 1973.88L1257.19 1948.57L1230.74 1896.06C1225.9 1886.45 1225.86 1875.12 1230.64 1865.49L1260.6 1804.99C1272.13 1892.53 1279.42 1939.94 1282.45 1947.21C1285.49 1954.49 1281.37 1964.66 1270.11 1977.73L1256.43 1973.88Z" />
					<path id="&lt;Path&gt;" class="shp52" d="M1037.5 1951.72C1018.64 1960.89 1007.49 1970.74 1004.02 1981.27C999.85 1993.95 968.58 1995.59 965.49 2020.52C963.89 2033.4 954.37 2043.71 941.55 2045.67C909.61 2050.57 860.39 2067.15 852.52 2122.6C846.51 2164.92 868.08 2180.97 890.73 2186.52C907.36 2190.6 918.41 2206.78 915.05 2223.57C911.82 2239.67 916.63 2258.29 944.53 2273.01C986.21 2295 1027.86 2268.95 1069.49 2194.85L1082.28 2000.79L1037.5 1951.72Z" />
					<path id="&lt;Path&gt;" class="shp53" d="M1256.43 1973.88C1260.23 2086.07 1212.85 2140.52 1114.27 2137.23C1144.69 2186.85 1167.83 2213.17 1183.7 2216.18C1284.56 2181.17 1317.47 2091.51 1282.45 1947.21L1256.43 1973.88Z" />
					<path id="&lt;Path&gt;" class="shp54" d="M780.51 3168.58L776.47 3201.84C772.25 3217.64 751.91 3257.47 725.79 3254.88C709.72 3253.28 707.79 3206.34 710.02 3199.29C714.11 3186.46 721.57 3167.18 732.34 3155.84L769.23 3155.84C776.05 3155.84 781.34 3161.81 780.51 3168.58Z" />
					<path id="&lt;Path&gt;" class="shp55" d="M1069.49 2778.97L1075.71 2815.6C1061.81 2956.42 1053.62 3055 1051.15 3111.33C1050.57 3124.57 1054 3137.66 1060.95 3148.95L1097.21 3207.84L1005.05 3153.46L1003.22 3142.21L1018.3 3121.47L998.54 2884.84C997.38 2870.93 1000.25 2856.99 1006.81 2844.68L1025.87 2808.87L1069.49 2778.97Z" />
					<path id="&lt;Path&gt;" class="shp56" d="M1103.28 3216.37L1073.87 3216.37C1068.36 3216.37 1063.17 3213.84 1059.82 3209.48C1050.65 3197.57 1031.65 3174.32 1022.57 3173.72C1014.42 3173.17 1010.86 3187.39 1011.91 3216.37L1005.05 3216.37L996.37 3162.35C994.19 3148.76 1000.94 3135.3 1013.15 3128.93C1015.01 3142.71 1021 3152.65 1031.1 3158.75C1041.2 3164.84 1061.76 3178.8 1092.77 3200.63C1096.57 3200.09 1100.56 3200.2 1104.73 3200.95C1114 3202.63 1112.71 3216.37 1103.28 3216.37Z" />
					<path id="&lt;Path&gt;" class="shp57" d="M943.26 2796.37C861.81 2950.86 814.62 3045.74 801.67 3081.02C782.25 3133.93 775.45 3178.07 775.19 3182.25C774.78 3188.78 766.66 3195.04 744.26 3195.04C732.71 3195.04 727.05 3190.41 724.28 3185.93C721.91 3182.1 721.79 3177.32 723.78 3173.28C730.85 3158.98 753.28 3113.28 761.58 3092.55C771.5 3067.8 792.83 2955.63 804.53 2916.63C816.23 2877.64 829.45 2835.33 880.4 2796.37C903.71 2773.53 924.67 2773.53 943.26 2796.37Z" />
					<path id="&lt;Path&gt;" class="shp58" d="M1020.44 2416.65C1038.33 2340.83 1020.33 2283.71 1001.42 2248.5C986.34 2220.41 996.94 2185.67 1025.23 2170.96C1054.69 2155.64 1084.37 2144.39 1114.27 2137.23C1172.66 2179.91 1198.39 2217.96 1191.46 2251.37C1187.4 2270.95 1166.88 2329.6 1129.9 2427.31C1095.7 2443.49 1059.22 2439.94 1020.44 2416.65Z" />
					<path id="&lt;Path&gt;" class="shp59" d="M950.57 2482.76C959.12 2457 982.41 2434.96 1020.44 2416.65C1059.22 2439.94 1095.7 2443.49 1129.9 2427.31C1137.57 2456.62 1138.76 2484.9 1133.46 2512.14C1128.17 2539.38 1108.92 2640.53 1075.71 2815.6C1023.39 2826.2 956.99 2820.87 876.52 2799.6C926.51 2710.84 937.74 2521.39 950.57 2482.76Z" />
					<path id="&lt;Path&gt;" class="shp60" d="M1057.02 2048.98L1031.39 2164.07C1028.94 2174.2 1038.18 2172.54 1048.43 2170.61C1065.22 2167.45 1086.85 2160.93 1094.08 2147.87C1094.82 2146.54 1095.18 2145.04 1095.39 2143.53L1106.4 2063.73C1107.27 2057.4 1103.85 2051.25 1098.01 2048.66L1076.76 2039.24C1068.59 2035.62 1059.12 2040.28 1057.02 2048.98Z" />
					<g id="&lt;Group&gt;">
						<path id="&lt;Path&gt;" class="shp61" d="M1087.08 1939.4C1107.31 1947.94 1124.3 1966.83 1138.05 1996.06C1158.69 2039.91 1143.28 2060.16 1123.93 2062.94C1104.57 2065.72 1075.63 2065.29 1045.01 2036.97C1014.4 2008.64 1047.63 1924.21 1087.08 1939.4Z" />
						<path id="&lt;Path&gt;" class="shp62" d="M1065.59 2013.56C1050.33 1970.79 1061.66 1949.15 1099.58 1948.65L1112.96 1958C1126.87 1934.29 1122.41 1916.77 1099.58 1905.45C1065.32 1888.48 1025.24 1902.5 1010.66 1948.65C996.08 1994.79 993.59 2025.68 1017.85 2047.76C1034.01 2062.48 1045.43 2061.5 1052.09 2044.81C1043.29 2031.04 1040.68 2020.47 1044.26 2013.11C1047.84 2005.74 1053.77 2006.5 1062.04 2015.39L1065.59 2013.56Z" />
						<path id="&lt;Path&gt;" class="shp63" d="M1059.21 2020.7C1051.5 1998.67 1042.49 1992.04 1032.2 2000.82C1016.76 2013.98 1044.75 2031.34 1055.71 2036.97L1059.21 2020.7Z" />
					</g>
					<path id="&lt;Path&gt;" class="shp64" d="M1363.09 2105.03C1311.4 2221.1 1203 2247.82 1037.9 2185.21C1021.58 2179.02 1005.22 2196.69 1003.86 2214.09L1003.13 2223.5C1001.17 2248.71 1021.74 2269.96 1047 2268.68C1137.44 2264.1 1267.34 2316.97 1381.46 2163.67L1363.09 2105.03Z" />
					<path id="&lt;Path&gt;" class="shp65" d="M1381.46 2163.67C1390.1 2138.24 1395.5 2117.59 1397.67 2101.7C1400.93 2077.86 1388.94 2024.36 1378.65 2009.32C1368.35 1994.28 1366.63 2031.15 1361.99 2048.48C1358.9 2060.03 1359.97 2074.05 1365.21 2090.54L1360.47 2122.95L1381.46 2163.67Z" />
				</g>
			</g>
		</g>
	</g>
</svg>